<svg width="458" height="458" viewBox="0 0 458 458" fill="none" xmlns="http://www.w3.org/2000/svg">
<circle cx="229" cy="229" r="229" fill="#FAFAFA"/>
<path fill-rule="evenodd" clip-rule="evenodd" d="M142.094 268.225C144.135 266.835 148.31 261.862 150.498 260.713C155.362 258.157 177.03 253.134 177.734 252.837C178.807 252.385 185.778 250.805 189.839 249.808C199.376 247.464 233.553 232.327 242.561 228.446C243.71 231.468 253.204 244.806 251.575 246.172C246.213 250.673 236.602 256.276 230.391 259.501C225.368 262.109 220.047 264.268 214.675 266.03C208.577 268.032 204.391 270.177 198.313 272.224C192.333 274.238 199.479 280.537 202.55 281.839C205.995 283.299 211.33 284.04 214.85 285.305C208.653 294.921 203.449 306.593 202.408 318.112C202.157 320.884 200.041 323.426 196.598 322.596C194.822 322.167 178.431 319.988 175.758 319.379C157.916 315.316 125.885 294.041 134.134 272.224C136.023 273.095 140.337 269.42 142.094 268.225Z" fill="#9333EA"/>
<path fill-rule="evenodd" clip-rule="evenodd" d="M152.076 152.475C153.409 152.363 156.855 149.704 155.047 148.36C153.222 147.003 151.911 151.549 152.076 152.475ZM82.6417 162.671C82.9901 162.61 82.838 160.706 82.2894 160.463C80.558 159.695 80.4118 162.58 80.3695 163.352C80.3169 164.326 80.1947 167.07 82.2998 166.318C83.4951 165.891 82.7535 163.401 82.6417 162.671ZM184.859 171.565C184.811 173.264 188.25 176.532 189.532 174.572C190.61 172.925 184.947 168.182 184.859 171.565ZM63.294 133.239C64.2903 135.777 69.217 132.319 69.4 130.458C69.776 126.646 63.2426 130.703 63.294 133.239ZM104.398 144.179C106.693 143.991 109.712 141.078 111.924 139.99C113.421 139.254 117.495 138.376 117.938 136.705C118.324 135.252 111.412 138.361 110.822 138.637C108.11 139.906 105.665 141.352 104.398 144.179ZM276.642 124.095C278.471 122.683 280.694 121.772 283.039 121.832C284.209 121.862 286.652 122.593 286.743 120.571C286.893 117.284 276.554 121.293 274.938 121.938C275.507 122.657 276.075 123.376 276.642 124.095ZM162.557 252.192C161.215 249.968 158.802 248.682 156.987 246.784C157.652 249.9 156.153 252.672 155.123 255.516C157.601 254.408 160.079 253.3 162.557 252.192ZM395.543 299.615C396.282 297.144 397.023 294.687 397.888 292.254C398.855 289.53 399.335 289.294 397.02 287.389C395.099 291.016 393.177 294.642 391.255 298.269C392.623 298.849 394.051 299.415 395.543 299.615ZM196.665 120.761C194.12 117.898 182.197 117.718 183.672 124.038C184.187 126.244 187.119 123.9 188.955 123.386C190.778 122.875 195.938 122.807 196.665 120.761ZM196.227 161.301C195.919 160.57 195.303 157.933 194.389 157.725C193.499 157.522 189.986 160.289 189.326 160.711C186.032 162.819 182.821 165.086 179.611 167.32C180.84 167.32 181.956 166.883 183.177 166.873C184.629 166.861 185.671 167.456 187.086 167.117C190.127 166.388 193.657 163.023 196.227 161.301ZM199.523 95.9637C199.809 94.6539 214.716 98.5856 216.508 99.3055C217.484 99.6971 222.521 102.311 221.438 98.3714C220.822 96.1276 215.002 94.417 213.137 93.8021C208.396 92.2395 203.397 91.128 198.348 91.3857C197.368 91.4355 189.944 91.8632 193.044 94.843C194.112 95.8692 197.941 95.5457 199.523 95.9637ZM202.787 275.912C205.564 277.276 208.4 278.32 211.303 279.387C212.593 279.861 214.602 281.102 216.024 280.791C217.19 280.535 217.563 278.763 218.175 277.577C220.413 273.238 223.086 269.737 226.4 266.16C224.861 265.039 217.05 269.982 215.118 270.712C213.183 271.442 211.357 272.178 209.464 273.05C207.681 273.872 204.162 274.607 202.787 275.912ZM251.965 238.925C256.013 237.096 259.85 233.853 263.169 230.949C266.981 227.615 270.398 224.12 273.189 219.806C271.51 219.891 267.802 225.285 267.761 219.413C267.74 216.418 271.851 213.468 273.127 210.689C269.953 208.9 267.043 219.591 263.402 217C259.893 214.503 265.429 205.917 266.495 203.209C264.438 201.842 252.713 217.143 251.016 219.101C249.955 220.327 247.445 221.959 246.846 223.388C246.489 224.239 246.438 226.94 246.61 227.723C246.97 229.36 248.788 231.32 249.598 232.844C250.623 234.774 251.515 236.779 251.965 238.925ZM419.309 294.092C415.809 289.159 419.425 287.007 422.271 282.913C424.547 279.637 426.642 276.027 428.085 272.369C431.694 263.22 434.95 254.715 436.733 245.038C434.28 246.156 432.746 250.411 431.519 252.653C429.869 255.667 428.418 258.831 426.584 261.751C423.152 267.216 419.783 273.046 415.417 277.783C413.439 279.929 411.765 282.344 409.483 284.279C408.44 285.162 406.446 285.888 405.678 286.992C404.953 288.035 405.763 288.702 405.488 289.949C405.206 291.227 403.911 292.59 403.355 293.821C402.625 295.438 401.945 297.058 401.13 298.639C400.242 300.363 399.999 301.265 399.759 302.95C399.497 304.792 400.3 304.984 398.689 306.681C401.609 307.967 404.529 309.252 407.449 310.538C408.434 310.972 409.42 311.406 410.405 311.84C410.613 311.451 410.821 311.062 411.029 310.673C411.831 309.895 412.569 307.976 413.028 306.948C414.946 302.659 417.113 298.352 419.309 294.092ZM137.335 273.382C129.043 295.178 158.179 313.529 176.114 317.588C178.598 318.15 181.022 318.886 183.495 319.49C186.192 320.148 188.586 320.017 191.277 320.292C193.418 320.511 194.439 322.163 196.456 322.618C199.828 323.379 199.622 320.849 199.863 318.138C200.887 306.644 206.762 295.554 212.98 285.964C210.139 284.949 207.325 283.842 204.521 282.731C202.122 281.78 198.448 279.107 195.869 278.966C193.961 278.862 191.054 280.488 189.202 281.202C186.116 282.391 183.021 283.404 179.806 284.214C174.182 285.632 167.924 287.564 162.106 287.711C160.428 287.753 155.826 288.533 154.619 287.498C152.317 285.524 155.512 283.879 157.439 283.174C168.924 278.975 181.119 277.19 192.636 272.884C198.563 270.668 204.429 268.194 210.393 266.011C215.534 264.13 220.919 262.464 225.887 260.149C232.448 257.094 239.038 253.288 244.72 248.803C245.857 247.906 248.24 246.573 249.019 245.273C249.705 244.128 249.62 245.27 249.477 243.881C249.375 242.884 248.153 241.533 247.651 240.591C245.778 237.08 244.086 233.472 242.664 229.756C233.6 233.638 224.978 238.92 216.048 243.068C207.06 247.244 196.922 250.189 187.307 252.538C183.214 253.538 178.509 253.854 174.756 255.83C173.162 256.669 171.585 257.64 169.877 258.126C169.373 259.092 168.876 259.281 168.387 258.693C168.08 258.35 167.684 258.205 167.198 258.258C166.153 258.435 165.088 258.928 164.111 259.306C159.165 261.22 154.43 263.617 149.735 266.063C147.51 267.222 145.228 268.363 143.098 269.686C141.956 270.396 140.934 271.111 140 272.085C138.88 273.253 139.147 274.213 137.335 273.382ZM323.905 143.974C326 144.008 327.91 142.875 330.095 142.938C333.531 143.037 336.251 145.697 338.245 148.262C342.191 153.337 341.185 159.46 339.202 165.14C338.254 167.854 336.952 170.46 335.325 172.836C333.884 174.939 331.31 176.929 330.304 179.272C328.646 183.134 331.991 181.492 334.039 180.667C336.614 179.628 339.028 178.338 341.214 176.6C350.955 168.854 358.366 158.086 360.848 145.72C362.059 139.687 361.965 132.634 357.756 127.71C353.908 123.207 347.265 121.736 341.587 122.571C335.448 123.474 329.886 126.07 324.887 129.412C323.436 130.383 322.106 131.442 320.743 132.528C318.955 133.953 317.883 133.99 318.331 136.223C318.663 137.883 319.568 139.603 320.152 141.196C321.244 144.18 320.846 144.952 323.905 143.974ZM330.585 195.408L330.161 196.131C333.084 196.27 335.806 193.696 338.296 192.439C341.531 190.806 344.404 188.578 347.239 186.328C352.238 182.359 357.302 177.887 361.023 172.678C369.365 160.999 376.943 146.193 374.666 131.387C372.213 115.429 358.234 109.286 343.338 111.399C336.626 112.35 330.633 115.343 324.625 118.381C321.597 119.912 319.042 121.899 316.268 123.822C314.828 124.82 313.514 124.95 313.421 126.696C313.35 128.011 315.627 130.986 316.243 132.178C323.786 124.496 331.914 118.14 343.305 117.747C356.857 117.28 364.87 130.109 364.811 142.395C364.752 154.443 359.548 166.033 351.251 174.692C347.481 178.627 343.886 181.784 339.256 184.656C336.948 186.088 335.246 187.374 332.665 188.324C330.84 188.997 331.03 188.642 330.565 190.33C330.169 191.761 330.573 193.921 330.585 195.408ZM256.951 359.1C256.774 361.271 256.332 363.408 255.841 365.526C255.664 366.287 254.669 368.688 254.844 369.543C255.132 370.956 254.748 370.047 255.988 370.785C257.282 371.554 258.788 371.508 260.204 371.742C261.079 371.886 264.282 373.391 264.82 373.153C265.762 372.738 265.732 371.273 266.766 370.692C268.174 369.9 270.248 370.578 271.577 371.198C275.128 372.851 277.567 376.275 281.003 378.149C287.105 381.476 294.345 383.318 301.153 384.078C304.841 384.49 308.615 385.213 312.257 384.35C315.126 383.67 318.856 383.733 320.416 380.659C306.553 376.852 285.395 372.194 279.914 356.31C276.934 359.007 271.955 357.555 268.354 357.182C264.393 356.773 260.853 356.868 257.23 355.065C256.965 356.482 256.884 357.658 256.951 359.1ZM134.214 260.722C140.74 261.116 146.926 258.032 150.942 252.83C151.931 251.549 152.944 250.24 153.538 248.723C153.666 248.338 153.795 247.953 153.923 247.568C154.546 246.506 154.274 246.004 153.105 246.064C152.447 245.163 150.779 244.86 151.254 243.227C151.611 241.995 152.93 241.975 154.077 241.587C153.506 240.629 153.164 240.148 152.347 239.296C150.223 241.204 146.368 244.949 144.876 240.566C144.159 238.462 145.421 236.451 145.108 234.421C144.979 233.582 143.914 231.437 143.296 230.936C140.006 228.261 135.268 229.368 131.778 230.942C129.373 232.027 128.855 232.536 128.463 235.023C128.064 237.552 127.694 240.08 127.252 242.602C128.696 241.851 128.959 240.228 129.9 239.06C130.252 239.701 130.605 240.343 130.959 240.984C131.456 240.705 131.92 240.72 132.35 241.028C133.047 242.097 132.608 243.683 132.394 244.804C134.717 244.588 135.699 247.175 133.357 248.223C130.931 249.309 129.837 246.349 129.755 244.432C128.85 245.512 127.921 244.934 127.29 245.489C126.659 246.043 126.411 247.199 126.186 248.464C125.818 250.544 124.875 253.545 125.747 255.631C127.043 258.73 131.174 260.342 134.214 260.722ZM323.306 161.196C321.147 164.195 317.466 168.119 316.696 171.742C319.074 170.348 324.102 163.643 325.398 168.984C326.141 172.05 322.328 175.703 321.391 178.672C325.141 177.44 327.813 173.581 330.153 170.603C333.137 166.806 336.183 161.8 336.945 156.972C337.561 153.064 334.846 149.423 330.813 149.04C328.753 148.844 326.601 149.17 324.61 149.648C323.703 149.865 322.349 150.135 321.539 150.62C320.521 151.23 320.382 152.658 319.424 151.47C318.151 153.866 316.878 156.261 315.605 158.657C316.872 158.198 319.457 156.249 320.842 156.451C322.864 156.745 323.279 159.678 323.306 161.196ZM121.138 102.545C115.477 102.712 109.56 103.916 104.201 105.705C102.871 106.149 97.2565 107.731 98.4387 110.024C99.2201 111.539 103.434 109.398 104.707 109.04C110.166 107.51 115.787 106.5 121.378 105.579C122.733 105.356 127.325 105.378 127.562 103.606C127.853 101.444 122.736 102.543 121.138 102.545ZM275.198 349.156C272.13 349.53 269.183 349.39 266.112 349.015C263.528 348.699 260.896 347.642 258.324 347.642C258.324 350.391 258.137 350.408 261.042 350.997C263.069 351.407 265.125 351.638 267.174 351.924C270.781 352.428 274.785 353.841 278.436 353.115C278.348 352.638 278.068 349.417 277.69 349.098C277.477 348.919 275.508 349.159 275.198 349.156ZM225.609 145.785C226.467 146.331 228.439 148.507 229.461 148.545C229.096 146.025 226.28 141.638 223.047 143.196C222.255 143.577 220.591 145.479 221.343 146.317C221.745 146.766 224.557 145.788 225.609 145.785ZM195.695 168.2C195.726 167.761 195.758 167.322 195.79 166.883C194.604 167.58 193.135 167.909 192.292 169.032C193.304 169.479 194.315 169.928 195.328 170.376C195.45 169.651 195.572 168.926 195.695 168.2ZM289.131 235.098C294.737 237.058 299.876 239.676 304.002 244.12C307.568 247.962 309.245 254.732 310.115 259.769C312.269 272.232 308.112 283.785 305.371 295.708C303.981 301.757 301.905 307.577 299.962 313.469C298.264 318.614 296.809 324.002 294.467 328.895C292.48 333.043 289.943 337.133 288.195 341.437C287.255 343.752 285.731 351.7 282.162 349.204C281.189 351.746 280.952 351.53 281.993 353.296C282.747 354.574 285.303 356.349 286.509 357.39C289.723 360.166 293.794 362.452 297.565 364.395C304.471 367.954 311.875 370.617 318.987 373.862C322.131 375.297 325.541 376.993 324.835 381.1C324.244 384.543 322.249 387.154 319.137 388.686C316.215 390.124 312.036 391.235 308.822 391.686C306.915 391.954 306.477 391.162 304.923 390.888C303.192 390.583 301.173 391.172 299.388 391.157C291.374 391.087 284.357 389.074 277.882 384.434C275.568 382.776 272.161 378.277 269.132 378.278C267.584 378.278 267.911 379.217 266.549 379.768C264.869 380.448 261.973 379.165 260.321 378.864C256.801 378.222 253.222 377.571 250.878 374.544C248.344 371.272 249.245 367.22 250.334 363.588C251.562 359.493 253.627 355.338 254.504 351.181C254.718 350.17 254.915 348.285 254.698 347.256C254.36 345.66 252.747 344.708 252.698 342.979C252.683 342.454 253.437 341.76 253.568 341.218C253.859 340.026 253.814 338.789 253.934 337.576C254.148 335.412 254.642 333.339 254.983 331.201C255.758 326.335 257.286 321.994 258.766 317.305C260.201 312.755 261.567 309.369 264.342 305.429C265.778 303.388 270.584 296.118 268.237 294.026C265.025 300.325 261.269 305.238 256.354 310.253C252.594 314.089 248.918 319.246 244.213 321.978C239.039 324.982 232.717 326.749 227.004 328.337C224.287 329.092 222.032 330.767 219.103 331.077C215.928 331.412 212.697 331.017 209.588 330.31C208.712 330.111 206.188 328.768 205.396 328.854C204.229 328.98 202.551 331.057 201.271 331.438C198.154 332.366 196.026 330.593 193.662 328.954C191.097 327.176 190.321 326.734 187.36 326.52C183.734 326.258 180.208 324.982 176.641 324.2C170.371 322.826 165.041 320.043 159.341 317.128C152.808 313.789 147.219 309.182 142.295 303.741C135.055 295.742 124.974 273.576 136.799 265.815C129.837 264.872 123.461 261.836 122.613 253.968C122.169 249.851 123.004 245.291 124.041 241.323C124.514 239.511 125.078 237.71 125.619 235.917C126.026 235.312 126.241 234.649 126.264 233.929C126.513 232.996 126.153 232.531 125.183 232.535C123.349 230.394 121.971 228.505 121.6 225.465C121.484 224.502 121.379 223.025 122.065 222.206C122.383 221.877 122.766 221.657 123.214 221.546C124.288 221.608 124.592 221.079 124.125 219.961C124.647 218.377 123.873 217.143 125.839 216.481C126.47 216.615 127.097 216.762 127.722 216.92C128.519 217.283 129.038 217.02 129.279 216.133C131.132 215.409 130.277 214.339 132.794 215.271C134.317 215.834 135.767 216.805 136.876 217.987C138.267 217.095 135.103 211.583 134.997 209.824C134.747 205.679 136.463 202.251 138.697 198.846C143.038 192.229 149.097 186.539 155.071 181.419C166.516 171.615 178.539 162.28 191.462 154.469C186.131 150.772 179.903 149.77 173.559 151.488C167.712 153.072 162.972 155.949 157.588 158.465C152.602 160.796 147.309 161.753 145.719 155.393C143.937 148.27 149.621 145.626 154.719 142.432C153.446 141.483 149.255 142.161 147.67 142.273C144.139 142.523 140.763 143.319 137.332 144.022C135.687 144.359 134.175 144.284 132.545 144.614C130.121 145.105 127.591 145.656 125.139 146.355C119.306 148.021 113.515 150.549 108.475 153.956C104.118 156.898 101.096 161.053 97.5858 164.88C93.5826 169.244 89.7471 173.537 83.8124 175.135C81.0336 175.883 77.7739 176.562 75.8035 174.084C73.9705 171.779 73.8684 169.002 73.9286 166.184C74.061 159.961 77.0723 153.235 80.5751 148.15C84.3772 142.629 89.4695 139.468 94.2811 135.024C87.3267 135.521 80.6054 139.181 74.2098 141.711C72.8638 142.244 71.5051 142.842 70.1519 143.335C68.7088 143.86 67.7528 143.539 66.3704 143.779C63.2151 144.329 60.505 145.657 57.4359 143.54C51.6294 139.536 57.4468 131.39 61.4446 128.89C67.013 125.409 72.678 122.478 78.8125 119.995C75.4913 116.398 78.3278 111.265 81.389 108.713C85.2622 105.485 90.1941 103.634 94.8612 101.906C98.5522 100.539 102.177 99.2265 106.011 98.4038C110.042 97.5393 114.755 96.2183 118.845 96.345C122.681 96.4639 126.082 95.7891 129.967 95.6812C133.199 95.5915 136.439 95.6691 139.671 95.5854C148.367 95.3611 157.095 95.9467 165.593 96.5712C158.86 76.911 203.212 82.9824 212.674 85.5504C221.274 87.8844 231.126 90.5919 238.349 96.1298C241.409 98.4753 244.316 101.142 247.031 103.879C251.036 107.916 253.254 113.204 255.372 118.423C260.746 115.794 265.885 112.93 271.765 111.626C277.36 110.387 283.091 108.706 288.719 107.77C292.998 107.057 299.208 106.574 302.809 109.591C306.72 112.867 308.758 117.966 311.093 122.333C322.305 111.711 334.811 103.961 350.796 104.476C366.439 104.981 376.725 118.468 378.621 133.084C380.71 149.189 373.526 166.017 363.786 178.489C359.419 184.082 354.9 189.483 349.022 193.656C346.107 195.724 343.032 197.991 339.836 199.606C338.243 200.411 336.5 201.138 334.827 201.758C334.072 202.037 333.294 202.318 332.509 202.508C330.267 203.051 330.702 202.326 329.868 204.286C329.191 205.877 329.275 208.615 328.985 210.361C328.654 212.358 328.457 214.381 327.974 216.35C327.136 219.763 326.264 223.093 325.215 226.426C323.229 232.734 320.556 239.091 317.283 244.845C320.059 246.049 323.947 246.17 326.914 246.535C330.125 246.93 333.34 247.759 336.676 248.691C343.36 250.557 349.332 252.132 355.688 254.925C362.286 257.825 368.166 262.156 374.519 265.602C380.362 268.771 386.267 272.741 391.693 276.546C392.983 277.451 393.783 278.238 394.81 279.384C395.862 280.555 396.196 280.785 397.453 281.799C398.019 282.257 399.666 284.564 400.313 284.649C401.472 284.802 401.294 283.939 402.203 282.734C404.101 280.218 406.75 278.269 408.635 275.689C410.207 273.538 411.847 271.36 413.528 269.51C417.596 265.034 420.966 260.073 423.858 254.706C425.363 251.913 426.947 249.254 428.582 246.617C430.209 243.992 433.102 240.528 436.342 240.683C436.082 239.346 435.254 239.124 436.682 238.306C437.603 237.78 439.394 238.628 440.103 239.163C441.98 240.579 442.063 243.327 441.945 245.39C441.64 250.709 440.525 255.959 438.972 260.987C437.104 267.033 434.764 272.366 432.21 278.136C430.177 282.732 427.652 288.811 422.592 290.908C425.99 295.753 424.358 299.7 422.087 304.844C420.427 308.603 418.235 312.489 414.895 314.977C411.131 317.782 407.048 315.402 403.111 313.549C400.733 312.428 393.461 309.786 394.94 306.339C393.124 306.097 391.981 304.78 390.328 304.374C388.578 303.945 388.878 304.655 387.026 304.921C385.606 305.125 383.482 303.855 382.145 303.401C379.912 302.642 377.686 301.865 375.455 301.098C369.178 298.939 363.006 296.813 356.667 295.084C344.873 291.866 332.932 290.041 321.179 287.167C318.823 286.591 316.48 286.035 314.027 285.574C313.521 285.479 310.892 285.333 310.573 284.791C310.014 283.842 311.733 278.533 311.881 277.451C312.849 270.348 312.533 262.573 311.168 255.551C310.602 252.632 308.07 248.852 308.092 246.003C308.107 244.091 309.803 242.004 310.8 240.272C313.263 235.991 315.844 231.366 317.67 226.91C320.463 220.095 322.175 212.402 323.409 205.102C324.052 201.297 324.8 197.172 324.975 193.322C325.109 190.388 324.868 187.31 325.294 184.305C323.667 184.459 321.366 185.3 319.901 184.399C318.051 183.263 317.554 180.018 317.79 178.079C311.456 179.183 311.666 173.185 312.059 168.495C300.61 168.495 315.272 151.509 317.103 147.861C317.945 146.184 317.92 148.068 317.549 145.474C317.385 144.334 316.605 143.071 316.163 142.022C315.201 139.734 314.161 137.48 313.05 135.26C310.702 130.571 308.043 126.04 305.141 121.672C302.529 123.489 300.174 125.641 297.992 127.949C299.392 124.295 303.668 119.768 301.839 115.618C300.144 111.771 294.482 112.038 291.139 112.741C282.054 114.654 273.34 117.44 264.685 120.665C267.366 122.2 271.471 121.014 274.135 119.84C277.433 118.387 280.98 116.861 284.535 116.091C287.636 115.42 291.708 115.649 290.812 119.818C290.086 123.197 286.776 126.451 284.592 128.977C279.781 134.543 273.748 138.851 267.822 143.156C261.451 147.784 255.313 152.812 248.862 157.306C237.201 165.429 224.663 172.489 212.615 180.072C206.355 184.012 199.26 187.183 192.471 190.103C185.002 193.315 177.841 196.754 170.093 199.292C165.789 200.701 161.524 201.861 157.296 203.464C154.645 204.469 150.03 206.482 148.279 203.499C144.722 197.439 157.593 189.471 161.12 185.766C163.553 188.125 151.554 196.918 152.493 200.353C153.231 203.053 156.085 199.567 157.463 198.831C159.691 197.641 162.328 197.044 164.567 195.687C169.158 192.904 174.601 189.694 175.649 183.941C174.92 183.172 174.929 182.463 175.677 181.813C176.01 181.417 176.274 180.983 176.468 180.51C176.795 179.606 176.926 178.473 177.101 177.515C177.618 174.681 176.321 172.029 177.533 169.256C170.458 174.609 163.656 180.655 156.94 186.45C150.915 191.648 144.629 198.454 142.415 206.21C142.131 207.204 141.66 208.332 141.712 209.38C141.812 211.439 142.018 210.995 143.68 211.658C145.341 212.32 147.761 212.263 149.547 212.333C150.566 212.372 155.115 211.296 154.21 213.527C153.689 214.814 150.536 214.765 149.407 214.884C146.573 215.183 145.036 214.876 146.379 217.943C146.981 219.317 148.2 220.248 149.156 221.312C151.818 224.272 153.263 228.812 155.357 232.289C157.743 236.25 160.365 240.017 163.151 243.707C164.301 245.229 165.837 248.09 167.431 249.176C168.919 250.19 167.168 250.107 169.64 249.694C170.717 249.516 171.694 248.815 172.725 248.565C178.887 247.066 185.222 245.376 191.595 243.526C199.746 241.159 208.301 239.141 216.079 235.733C223.046 232.679 229.962 229.043 237.002 225.95C239.058 225.047 241.111 224.449 242.709 222.787C244.638 220.783 246.235 218.158 248.014 216.002C251.039 212.336 253.828 208.608 257.084 205.133C259.508 202.548 263.804 197.743 267.225 196.711C273.723 194.751 270.244 204.634 269.404 207.131C270.932 207.478 271.735 205.521 273.528 206.084C275.674 206.758 275.897 209.608 276.165 211.394C276.236 211.87 275.591 212.76 275.787 213.184C275.854 213.329 277.255 214.156 277.525 214.539C278.506 215.931 278.313 217.625 277.941 219.126C276.018 226.904 269.183 232.584 264.156 238.322C266.405 237.897 268.072 236.617 270.195 235.983C272.187 235.387 274.191 235.418 276.199 235.248C278.302 235.069 280.322 234.283 282.473 234.243C284.731 234.202 286.893 234.844 289.131 235.098Z" fill="black"/>
<path fill-rule="evenodd" clip-rule="evenodd" d="M51.3723 165.137C50.1326 165.946 49.7832 166.74 49.7404 168.606C49.7232 169.372 49.7761 172.227 50.8476 172.12C51.8532 172.018 51.3723 166.119 51.3723 165.137ZM44.9684 169.788C45.546 163.806 47.738 157.723 52.8943 153.996C54.1695 153.074 55.6121 153.107 57.0097 152.525C57.8496 152.176 59.1767 150.552 60.1302 150.744C63.6405 151.453 59.5851 156.11 58.9912 157.335C57.1508 161.131 57.2751 164.466 57.3301 168.56C57.3719 171.672 58.0195 176.918 56.4483 179.734C54.7734 182.733 51.1408 180.786 49.1131 179.011C46.554 176.77 44.6212 173.201 44.9684 169.788Z" fill="black"/>
<path fill-rule="evenodd" clip-rule="evenodd" d="M106.589 187.466C106.589 190.804 109.303 188.544 109.206 186.17C109.064 182.674 106.463 184.827 106.589 187.466ZM121.015 169.012C118.045 171.679 115.754 173.175 115.182 177.276C114.749 180.382 115.179 183.459 115.198 186.587C115.229 191.832 110.987 197.346 106.423 191.334C103.093 186.949 104.287 180.053 107.002 175.647C108.427 173.334 110.461 171.047 112.81 169.606C114.578 168.522 119.549 166.388 121.015 169.012Z" fill="black"/>
<path fill-rule="evenodd" clip-rule="evenodd" d="M79.5397 249.84C79.1952 250.654 78.387 253.975 80.0361 253.224C81.492 252.56 80.5488 250.359 79.5397 249.84ZM70.8257 239.588C70.5711 238.339 70.6748 230.51 72.8344 231.097C74.5307 231.558 74.811 235.565 75.502 236.96C78.0754 242.153 83.9818 245.387 86.0185 250.747C88.292 256.733 81.4185 256.919 77.7713 254.495C73.4527 251.625 70.9539 244.597 70.8257 239.588Z" fill="black"/>
<path fill-rule="evenodd" clip-rule="evenodd" d="M65.5315 207.488C66.4687 206.225 66.5635 205.55 66.0292 204.432C65.3463 205.174 65.4676 206.234 65.5315 207.488ZM66.2097 213.141C61.3237 213.687 61.0791 204.696 61.9159 201.609C62.5822 199.151 64.0148 196.509 65.4895 194.506C65.7874 194.102 68.6124 190.47 69.1661 190.461C71.2911 190.427 70.7071 192.825 70.4779 193.717C69.756 196.529 69.4699 198.879 69.6642 201.997C69.8726 205.332 71.4545 213.251 66.2097 213.141Z" fill="black"/>
<path fill-rule="evenodd" clip-rule="evenodd" d="M288.057 135.28C281.071 141.13 274.438 147.464 266.841 152.581C263.124 155.085 259.238 157.301 255.528 159.846C253.639 161.142 251.711 162.303 249.616 163.256C247.764 164.097 246.554 164.207 248.09 162.209C249.117 160.874 251.418 159.944 252.817 158.995C254.969 157.534 257.002 155.913 259.266 154.617C263.258 152.33 267.225 150.484 270.905 147.68C274.171 145.192 277.54 142.763 280.657 140.118C281.994 138.984 286.426 133.778 288.057 135.28Z" fill="black"/>
<path fill-rule="evenodd" clip-rule="evenodd" d="M288.198 156.404C291.34 159.088 283.479 166.44 281.686 168.106C279.796 169.863 277.714 171.43 275.658 172.987C274.934 173.535 270.986 177.204 269.983 176.908C268.006 176.324 270.602 173.943 271.277 173.323C273.461 171.313 275.691 169.362 277.825 167.298C279.751 165.438 281.836 163.715 283.698 161.795C285.206 160.239 286.473 157.603 288.198 156.404Z" fill="black"/>
<path fill-rule="evenodd" clip-rule="evenodd" d="M55.4227 264.579C54.6023 262.681 53.1331 264.788 53.8779 265.736C54.5824 266.633 55.3177 264.943 55.4227 264.579ZM50.6125 260.831C51.0523 258.04 52.0687 256.489 54.6908 258.871C56.4927 260.508 60.1165 265.163 59.7726 267.7C59.3212 271.029 55.6498 270.084 53.7465 268.344C51.7957 266.56 50.9344 263.306 50.6125 260.831Z" fill="black"/>
<path fill-rule="evenodd" clip-rule="evenodd" d="M56.3588 315.758C53.1466 315.514 50.4062 313.052 49.042 310.166C47.8943 307.739 46.808 303.828 50.8402 305.103C53.4682 305.935 63.5989 316.15 56.3588 315.758Z" fill="black"/>
<path fill-rule="evenodd" clip-rule="evenodd" d="M95.2872 299.938C92.805 300.502 90.3494 298.87 88.8229 297.029C87.8732 295.883 85.6625 291.864 86.7763 290.209C88.3287 287.902 90.6728 292.54 91.4812 293.458C92.7495 294.896 96.8963 297.645 95.2872 299.938Z" fill="black"/>
<path fill-rule="evenodd" clip-rule="evenodd" d="M97.5231 237.178C95.5774 236.277 93.7708 235.191 92.9884 233.038C92.4907 231.666 92.0728 227.554 94.2826 227.573C96.8387 227.595 102.692 236.767 97.5231 237.178Z" fill="black"/>
<path fill-rule="evenodd" clip-rule="evenodd" d="M83.8808 194.391C86.4863 194.344 87.1031 195.779 87.4654 197.84C87.7114 199.239 88.9049 203.988 87.6653 204.961C85.8944 206.351 83.0773 203.166 82.5078 201.916C81.334 199.342 82.9569 196.809 83.8808 194.391Z" fill="black"/>
<path fill-rule="evenodd" clip-rule="evenodd" d="M128.649 336.787C129.918 337.364 132.804 338.642 131.701 340.625C130.548 342.699 127.238 340.683 126.001 339.777C125.483 339.397 122.194 336.914 122.331 336.081C122.621 334.311 127.156 336.621 128.649 336.787Z" fill="black"/>
<path fill-rule="evenodd" clip-rule="evenodd" d="M45.071 207.273C45.9378 209.441 46.9136 216.887 42.3487 212.866C40.9557 211.639 40.7454 210.106 41.2254 208.422C41.9194 205.98 42.9294 206.464 45.071 207.273Z" fill="black"/>
<path fill-rule="evenodd" clip-rule="evenodd" d="M286.98 179.545C285.969 177.483 288.465 176.153 289.799 174.824C290.669 173.956 294.331 169.248 295.531 169.514C298 170.061 288.194 178.625 286.98 179.545Z" fill="black"/>
<path fill-rule="evenodd" clip-rule="evenodd" d="M83.8479 328.905C86.2298 328.524 86.7854 331.165 88.3201 332.317C88.9781 332.811 91.2373 333.245 90.7828 334.294C89.5889 337.047 83.7312 330.757 83.8479 328.905Z" fill="black"/>
<path fill-rule="evenodd" clip-rule="evenodd" d="M103.961 266.516C105.598 265.831 110.324 269.507 108.967 271.095C106.939 273.47 104.077 267.815 103.961 266.516Z" fill="black"/>
<path fill-rule="evenodd" clip-rule="evenodd" d="M138.47 319.693C137.277 319.811 132.241 318.23 134.107 316.114C135.417 314.628 138.899 318.347 138.47 319.693Z" fill="black"/>
<path fill-rule="evenodd" clip-rule="evenodd" d="M78.1616 309.538C76.9768 310.011 72.7038 309.038 74.0473 307.185C75.3271 305.421 78.1634 308.074 78.1616 309.538Z" fill="black"/>
<path fill-rule="evenodd" clip-rule="evenodd" d="M113.144 317.532C114.529 317.388 115.53 318.222 115.768 319.634C114.036 319.881 113.501 319.47 113.144 317.532Z" fill="black"/>
<path fill-rule="evenodd" clip-rule="evenodd" d="M293.304 112.52C293.89 112.523 294.474 112.526 295.054 112.529C294.468 112.526 293.886 112.523 293.304 112.52Z" fill="black"/>
<path fill-rule="evenodd" clip-rule="evenodd" d="M284.121 234.12C283.247 234.121 282.372 234.123 281.498 234.124C282.373 234.122 283.247 234.121 284.121 234.12Z" fill="black"/>
<path fill-rule="evenodd" clip-rule="evenodd" d="M164.804 91.7852C164.764 92.6594 164.724 93.5336 164.683 94.4049C164.722 93.5299 164.763 92.6571 164.804 91.7852Z" fill="black"/>
<path fill-rule="evenodd" clip-rule="evenodd" d="M435.773 240.235C436.052 241.206 435.644 241.367 434.546 240.718C434.955 240.557 435.364 240.396 435.773 240.235Z" fill="black"/>
<path fill-rule="evenodd" clip-rule="evenodd" d="M410.933 316.42C411.372 316.423 411.811 316.426 412.245 316.428C411.805 316.426 411.369 316.423 410.933 316.42Z" fill="black"/>
<path fill-rule="evenodd" clip-rule="evenodd" d="M327.85 246.14C327.116 246.698 326.387 246.777 325.663 246.11C326.392 246.121 327.121 246.13 327.85 246.14Z" fill="black"/>
<path fill-rule="evenodd" clip-rule="evenodd" d="M311.48 171.686C311.461 172.415 311.443 173.143 311.423 173.869C311.442 173.139 311.461 172.413 311.48 171.686Z" fill="black"/>
<path fill-rule="evenodd" clip-rule="evenodd" d="M349.276 104.316C348.548 104.316 347.818 104.315 347.09 104.314C347.82 104.041 348.548 104.131 349.276 104.316Z" fill="black"/>
<path fill-rule="evenodd" clip-rule="evenodd" d="M135.446 95.4321C134.717 95.4749 133.988 95.5177 133.259 95.5605C133.988 95.5177 134.717 95.4749 135.446 95.4321Z" fill="black"/>
<path fill-rule="evenodd" clip-rule="evenodd" d="M153.374 95.5706C152.791 95.5212 152.208 95.4715 151.625 95.4221C152.208 95.4715 152.791 95.5212 153.374 95.5706Z" fill="black"/>
<path fill-rule="evenodd" clip-rule="evenodd" d="M162.994 96.2627C162.411 96.4797 161.829 96.6081 161.245 96.2658C161.829 96.2649 162.411 96.2636 162.994 96.2627Z" fill="black"/>
<path fill-rule="evenodd" clip-rule="evenodd" d="M110.958 97.458C110.229 97.606 109.5 97.754 108.771 97.9007C109.501 97.754 110.229 97.606 110.958 97.458Z" fill="black"/>
<path fill-rule="evenodd" clip-rule="evenodd" d="M311.919 275.164C311.898 275.602 311.878 276.039 311.859 276.474C311.88 276.036 311.899 275.6 311.919 275.164Z" fill="black"/>
<path fill-rule="evenodd" clip-rule="evenodd" d="M70.9341 239.798C70.9428 240.09 70.9511 240.382 70.959 240.671C70.9498 240.379 70.9424 240.089 70.9341 239.798Z" fill="black"/>
<path fill-rule="evenodd" clip-rule="evenodd" d="M438.482 238.232L436.296 238.243C437.023 237.701 437.752 237.77 438.482 238.232Z" fill="black"/>
<path fill-rule="evenodd" clip-rule="evenodd" d="M288.932 235.139C288.348 235.043 287.765 234.947 287.182 234.851C287.765 234.947 288.348 235.043 288.932 235.139Z" fill="black"/>
<path fill-rule="evenodd" clip-rule="evenodd" d="M128.886 336.722C128.157 336.58 127.429 336.437 126.7 336.296L128.886 336.722Z" fill="black"/>
<path fill-rule="evenodd" clip-rule="evenodd" d="M276.052 211.418C276.038 210.981 276.025 210.544 276.012 210.108C276.025 210.545 276.038 210.982 276.052 211.418Z" fill="black"/>
<path fill-rule="evenodd" clip-rule="evenodd" d="M137.632 95.5769C137.194 95.5232 136.757 95.4695 136.32 95.4158C136.757 95.4695 137.194 95.5232 137.632 95.5769Z" fill="black"/>
<path fill-rule="evenodd" clip-rule="evenodd" d="M209.346 84.7795C208.909 84.6472 208.471 84.5149 208.034 84.3826C208.472 84.5149 208.909 84.6472 209.346 84.7795Z" fill="black"/>
<path fill-rule="evenodd" clip-rule="evenodd" d="M261.383 379.271C261.675 379.288 261.968 379.306 262.257 379.324C261.963 379.306 261.673 379.288 261.383 379.271Z" fill="black"/>
<path fill-rule="evenodd" clip-rule="evenodd" d="M60.6704 144.817C61.1094 144.828 61.5484 144.84 61.9823 144.852C61.5411 144.84 61.1057 144.828 60.6704 144.817Z" fill="black"/>
<path fill-rule="evenodd" clip-rule="evenodd" d="M354.087 104.742C353.358 104.691 352.629 104.64 351.9 104.588C352.63 104.64 353.358 104.691 354.087 104.742Z" fill="black"/>
<path fill-rule="evenodd" clip-rule="evenodd" d="M123.639 102.698C122.616 102.7 121.595 102.701 120.578 102.703C121.603 102.701 122.621 102.7 123.639 102.698Z" fill="black"/>
<path fill-rule="evenodd" clip-rule="evenodd" d="M330.234 192.644C330.247 193.372 330.261 194.101 330.276 194.827C330.262 194.097 330.249 193.37 330.234 192.644Z" fill="black"/>
<path fill-rule="evenodd" clip-rule="evenodd" d="M276.688 348.966C276.103 348.957 275.519 348.948 274.938 348.938C275.525 348.946 276.106 348.957 276.688 348.966Z" fill="black"/>
<path fill-rule="evenodd" clip-rule="evenodd" d="M338.782 117.63C339.656 117.533 340.53 117.436 341.405 117.339C340.566 118.081 339.659 117.587 338.782 117.63Z" fill="black"/>
<path fill-rule="evenodd" clip-rule="evenodd" d="M271.878 349.195C271.439 349.178 271.001 349.162 270.566 349.146C271.006 349.163 271.442 349.179 271.878 349.195Z" fill="black"/>
<path fill-rule="evenodd" clip-rule="evenodd" d="M256.758 356.811C256.78 357.54 256.802 358.269 256.825 358.994C256.803 358.264 256.78 357.538 256.758 356.811Z" fill="black"/>
<path fill-rule="evenodd" clip-rule="evenodd" d="M323.477 144.44C324.06 144.386 324.643 144.332 325.226 144.278C324.694 144.688 324.069 144.448 323.477 144.44Z" fill="black"/>
<path fill-rule="evenodd" clip-rule="evenodd" d="M132.385 260.595C132.968 260.703 133.551 260.809 134.134 260.916C133.551 260.809 132.968 260.703 132.385 260.595Z" fill="black"/>
<path fill-rule="evenodd" clip-rule="evenodd" d="M223.339 145.709C224.067 145.09 224.796 145.157 225.526 145.702C224.797 145.704 224.068 145.706 223.339 145.709Z" fill="black"/>
<path fill-rule="evenodd" clip-rule="evenodd" d="M195.977 167.757C195.998 167.465 196.019 167.174 196.041 166.883C196.021 167.175 195.999 167.466 195.977 167.757Z" fill="black"/>
<path fill-rule="evenodd" clip-rule="evenodd" d="M323.249 159.461C323.255 160.044 323.261 160.627 323.267 161.207C323.262 160.623 323.256 160.042 323.249 159.461Z" fill="black"/>
<path fill-rule="evenodd" clip-rule="evenodd" d="M130.323 250.727C131.282 251.052 133.212 252.033 134.33 251.903C135.225 251.799 135.963 250.712 136.826 250.714C139.15 250.717 138.719 253.399 137.596 254.839C134.559 258.735 127.773 254.511 130.323 250.727Z" fill="black"/>
<path fill-rule="evenodd" clip-rule="evenodd" d="M139.808 236.742C142.978 237.559 141.399 244.52 138.735 244.998C135.598 245.562 135.051 239.902 135.671 237.856C137.285 238.814 136.286 242.231 138.32 241.287C139.614 240.685 139.417 237.906 139.808 236.742Z" fill="black"/>
</svg>
